<mxfile host="app.diagrams.net" modified="2024-06-12T02:38:42.477Z" agent="Mozilla/5.0 (Windows NT 10.0; Win64; x64) AppleWebKit/537.36 (KHTML, like Gecko) Chrome/125.0.0.0 Safari/537.36" etag="b_K5iFr4UhbvvjCi_W_m" version="24.5.3" type="github">
  <diagram name="第 1 页" id="VweGz7vqr8bSAwefDRZ3">
    <mxGraphModel dx="1050" dy="1699" grid="1" gridSize="10" guides="1" tooltips="1" connect="1" arrows="1" fold="1" page="1" pageScale="1" pageWidth="827" pageHeight="1169" math="0" shadow="0">
      <root>
        <mxCell id="0" />
        <mxCell id="1" parent="0" />
        <mxCell id="j9VCMZbwd8vMffFG7V5M-3" value="" style="rounded=0;whiteSpace=wrap;html=1;opacity=20;fillColor=#ffe6cc;strokeColor=#d79b00;" vertex="1" parent="1">
          <mxGeometry x="153" y="-640" width="400" height="250" as="geometry" />
        </mxCell>
        <mxCell id="j9VCMZbwd8vMffFG7V5M-1" value="" style="strokeWidth=2;html=1;shape=mxgraph.flowchart.start_1;whiteSpace=wrap;" vertex="1" parent="1">
          <mxGeometry x="310" y="-580" width="86" height="50" as="geometry" />
        </mxCell>
      </root>
    </mxGraphModel>
  </diagram>
</mxfile>
